<svg id="Layer_1" data-name="Layer 1" xmlns="http://www.w3.org/2000/svg" viewBox="0 0 503.54 98.3"><defs><style>.cls-1{fill:#231f20;}</style></defs><path class="cls-1" d="M59.37-109.5a20.5,20.5,0,0,1-15,11.34l-.73.12a26.27,26.27,0,0,0-1.11,3.76A23.15,23.15,0,0,0,45-94.59,24.14,24.14,0,0,0,62.4-107.45,26,26,0,0,1,59.37-109.5Z" transform="translate(-16.67 157.49)"/><path class="cls-1" d="M54.46-138.36a24.35,24.35,0,0,0-3.55-2,24.08,24.08,0,0,0-14.26-1.82,24.16,24.16,0,0,0-19.61,28A24.17,24.17,0,0,0,38-94.38a28.32,28.32,0,0,1,.88-3.55,20.55,20.55,0,0,1-18.29-16.89,20.54,20.54,0,0,1,16.66-23.8,20.48,20.48,0,0,1,12.53,1.74,20.81,20.81,0,0,1,3.65,2.27A20.49,20.49,0,0,1,61.08-122a20.13,20.13,0,0,1,.31,3.69,20.14,20.14,0,0,1-.57,4.73h0a23.49,23.49,0,0,0,3.11,2.32,24.06,24.06,0,0,0,.74-3,25.25,25.25,0,0,0,.35-4.53,26,26,0,0,0-.37-3.8A24.11,24.11,0,0,0,54.46-138.36Z" transform="translate(-16.67 157.49)"/><path class="cls-1" d="M83.11-109A22,22,0,0,0,87.6-111,29.78,29.78,0,0,0,65-118.79a25.25,25.25,0,0,1-.35,4.53A25.3,25.3,0,0,1,83.11-109Z" transform="translate(-16.67 157.49)"/><path class="cls-1" d="M90.43-108a26.13,26.13,0,0,1-4.06,2.14,25.13,25.13,0,0,1,6,12.43A25.36,25.36,0,0,1,71.8-64.06,25.36,25.36,0,0,1,42.42-84.64a25.35,25.35,0,0,1,.15-9.64A26.27,26.27,0,0,1,43.68-98,25.39,25.39,0,0,1,56.6-112a25.17,25.17,0,0,1,4.21-1.54h0a20.14,20.14,0,0,0,.57-4.73,27.68,27.68,0,0,0-3.9,1.08,29,29,0,0,0-3.79,1.62A30,30,0,0,0,38.91-97.93,28.32,28.32,0,0,0,38-94.38a30,30,0,0,0,0,10.52A29.85,29.85,0,0,0,72.58-59.65a29.84,29.84,0,0,0,24.2-34.58A29.66,29.66,0,0,0,90.43-108Z" transform="translate(-16.67 157.49)"/><path class="cls-1" d="M71.28-157.08a26.85,26.85,0,0,0-20.37,16.71,24.35,24.35,0,0,1,3.55,2A22.82,22.82,0,0,1,72-153.12,22.83,22.83,0,0,1,98.42-134.6,22.82,22.82,0,0,1,87.6-111,22,22,0,0,1,83.11-109a22.35,22.35,0,0,1-3.2.8,22.77,22.77,0,0,1-16-3.06,23.49,23.49,0,0,1-3.11-2.32h0A25.17,25.17,0,0,0,56.6-112a27.3,27.3,0,0,0,2.77,2.5,26,26,0,0,0,3,2,26.75,26.75,0,0,0,18.21,3.26,27.2,27.2,0,0,0,5.76-1.69A26.13,26.13,0,0,0,90.43-108a26.85,26.85,0,0,0,12-27.28A26.85,26.85,0,0,0,71.28-157.08Z" transform="translate(-16.67 157.49)"/><path class="cls-1" d="M53.46-126.67a22.53,22.53,0,0,1,0-7.94,20.81,20.81,0,0,0-3.65-2.27A26.8,26.8,0,0,0,49.49-126a26.8,26.8,0,0,0,4.21,10.4,29,29,0,0,1,3.79-1.62A22.71,22.71,0,0,1,53.46-126.67Z" transform="translate(-16.67 157.49)"/><path class="cls-1" d="M283.77-102.75c0-2.53,0-3,0-3.53s-.2-.85-.56-.93a2.4,2.4,0,0,0-.6-.07c-.17,0-.27,0-.27-.17s.13-.13.4-.13c.63,0,1.68,0,2.17,0s1.4,0,2,0c.22,0,.35,0,.35.13s-.1.17-.27.17a3.13,3.13,0,0,0-.5,0c-.45.08-.58.37-.61,1s0,1,0,3.53v2.93c0,1.62,0,2.94.07,3.65.05.45.17.75.67.82a7.51,7.51,0,0,0,.84.07c.19,0,.27,0,.27.13s-.13.17-.31.17c-1.1,0-2.15,0-2.6,0s-1.44,0-2.1,0c-.22,0-.34,0-.34-.17s.07-.13.27-.13a2.91,2.91,0,0,0,.6-.07c.33-.07.43-.35.48-.83.09-.7.09-2,.09-3.64Z" transform="translate(-16.67 157.49)"/><path class="cls-1" d="M291.23-97.25c0,1.3.25,1.73.58,1.85a2.65,2.65,0,0,0,.87.12c.18,0,.28,0,.28.13s-.15.17-.38.17c-1.09,0-1.75,0-2.07,0-.15,0-.93,0-1.8,0-.21,0-.36,0-.36-.17s.1-.13.26-.13a2.8,2.8,0,0,0,.75-.09c.43-.13.5-.61.52-2.06l.15-9.87c0-.33.05-.56.21-.56s.34.21.62.51,2.73,2.94,5.17,5.35c1.13,1.13,3.38,3.53,3.66,3.8h.09l-.17-7.48c0-1-.17-1.33-.57-1.5a2.71,2.71,0,0,0-.88-.1c-.2,0-.27,0-.27-.15s.19-.15.44-.15c.86,0,1.66,0,2,0,.19,0,.82,0,1.64,0,.21,0,.38,0,.38.15s-.1.15-.3.15a1.8,1.8,0,0,0-.5,0c-.47.13-.6.48-.62,1.42l-.18,10.51c0,.37-.07.52-.22.52s-.38-.19-.56-.37c-1.05-1-3.19-3.18-4.92-4.9s-3.67-3.88-4-4.2h0Z" transform="translate(-16.67 157.49)"/><path class="cls-1" d="M303.82-95.18c-.27-.12-.32-.2-.32-.57,0-.92.07-1.92.09-2.18s.06-.44.2-.44.16.15.16.29a3.82,3.82,0,0,0,.15.85,2.3,2.3,0,0,0,2.38,1.68,2,2,0,0,0,2.24-1.9c0-.82-.25-1.58-1.64-2.67l-.76-.59c-1.83-1.44-2.47-2.6-2.47-4,0-1.84,1.53-3.15,3.85-3.15a8.06,8.06,0,0,1,2.22.28c.15,0,.23.08.23.2s-.07.7-.07,2c0,.37-.05.5-.18.5s-.17-.1-.17-.3a2,2,0,0,0-.43-1.1,2.1,2.1,0,0,0-1.82-.82,1.76,1.76,0,0,0-2,1.72c0,.77.38,1.35,1.77,2.4l.46.35c2,1.51,2.74,2.67,2.74,4.25a3.38,3.38,0,0,1-1.57,2.9,4.84,4.84,0,0,1-2.65.68A5.9,5.9,0,0,1,303.82-95.18Z" transform="translate(-16.67 157.49)"/><path class="cls-1" d="M316-106.65l-2.48.07c-1,0-1.37.12-1.62.48a1.75,1.75,0,0,0-.28.59c0,.13-.09.2-.19.2s-.15-.09-.15-.27.32-1.78.35-1.92.1-.31.2-.31a4.72,4.72,0,0,0,.72.2c.48,0,1.12.08,1.67.08h6.59a8.55,8.55,0,0,0,1.15-.08c.25,0,.39-.09.45-.09s.14.1.14.35,0,1.5,0,1.94c0,.16-.05.26-.15.26s-.17-.08-.19-.33v-.18c0-.44-.49-.9-2-.94l-2.1-.05v6.83c0,1.54,0,2.85.08,3.57.05.47.15.83.65.9a7.9,7.9,0,0,0,.85.07c.19,0,.27,0,.27.13s-.13.17-.32.17c-1.1,0-2.15,0-2.61,0s-1.44,0-2.1,0c-.22,0-.34,0-.34-.17s.07-.13.27-.13a2.91,2.91,0,0,0,.6-.07c.33-.07.43-.43.48-.92.09-.7.09-2,.09-3.55Z" transform="translate(-16.67 157.49)"/><path class="cls-1" d="M324.92-102.75c0-2.53,0-3,0-3.53s-.2-.85-.57-.93a2.35,2.35,0,0,0-.6-.07c-.17,0-.26,0-.26-.17s.13-.13.39-.13c.64,0,1.69,0,2.17,0s1.4,0,2,0c.22,0,.35,0,.35.13s-.1.17-.26.17a3.13,3.13,0,0,0-.5,0c-.45.08-.59.37-.62,1s0,1,0,3.53v2.93c0,1.62,0,2.94.06,3.65.05.45.17.75.67.82a7.69,7.69,0,0,0,.85.07c.18,0,.27,0,.27.13s-.14.17-.32.17c-1.1,0-2.15,0-2.6,0s-1.43,0-2.1,0c-.22,0-.33,0-.33-.17s.06-.13.26-.13a2.91,2.91,0,0,0,.6-.07c.34-.07.44-.35.49-.83.08-.7.08-2,.08-3.64Z" transform="translate(-16.67 157.49)"/><path class="cls-1" d="M334-106.65l-2.48.07c-1,0-1.37.12-1.62.48a1.75,1.75,0,0,0-.28.59c0,.13-.09.2-.19.2s-.15-.09-.15-.27.32-1.78.35-1.92.1-.31.2-.31a4.72,4.72,0,0,0,.72.2c.48,0,1.12.08,1.67.08h6.59a8.55,8.55,0,0,0,1.15-.08c.25,0,.39-.09.45-.09s.14.1.14.35-.05,1.5-.05,1.94c0,.16-.05.26-.15.26s-.17-.08-.19-.33v-.18c0-.44-.49-.9-2-.94l-2.1-.05v6.83c0,1.54,0,2.85.08,3.57.06.47.16.83.65.9a7.9,7.9,0,0,0,.85.07c.19,0,.27,0,.27.13s-.13.17-.32.17c-1.09,0-2.14,0-2.61,0s-1.43,0-2.1,0c-.22,0-.33,0-.33-.17s.06-.13.26-.13a2.91,2.91,0,0,0,.6-.07c.34-.07.44-.43.49-.92.08-.7.08-2,.08-3.55Z" transform="translate(-16.67 157.49)"/><path class="cls-1" d="M342.56-102.75c0-2.53,0-3,0-3.53s-.17-.83-.72-1a3.73,3.73,0,0,0-.65,0c-.18,0-.28,0-.28-.15s.11-.15.36-.15c.89,0,1.94,0,2.43,0s1.45,0,2.05,0c.25,0,.37,0,.37.15s-.1.15-.27.15a2.8,2.8,0,0,0-.48,0c-.45.08-.58.37-.62,1s0,1,0,3.53v2.34c0,2.41.48,3.43,1.3,4.09a3.08,3.08,0,0,0,2.08.69,3.27,3.27,0,0,0,2.3-.9c.92-.92,1-2.42,1-4.13v-2.09c0-2.53,0-3,0-3.53s-.17-.83-.72-1a3.54,3.54,0,0,0-.6,0c-.18,0-.28,0-.28-.15s.11-.15.35-.15c.85,0,1.9,0,1.91,0,.2,0,1.25,0,1.9,0,.24,0,.35,0,.35.15s-.1.15-.3.15a2.8,2.8,0,0,0-.48,0c-.45.08-.58.37-.62,1s0,1,0,3.53V-101c0,1.84-.18,3.81-1.58,5a5,5,0,0,1-3.47,1.2A5.37,5.37,0,0,1,344-95.9c-.85-.77-1.48-2-1.48-4.42Z" transform="translate(-16.67 157.49)"/><path class="cls-1" d="M359.35-106.65l-2.48.07c-1,0-1.37.12-1.62.48a1.75,1.75,0,0,0-.28.59c0,.13-.09.2-.19.2s-.15-.09-.15-.27.32-1.78.35-1.92.1-.31.2-.31a4.72,4.72,0,0,0,.72.2c.48,0,1.12.08,1.67.08h6.59a8.55,8.55,0,0,0,1.15-.08c.25,0,.39-.09.45-.09s.14.1.14.35,0,1.5,0,1.94c0,.16-.05.26-.15.26s-.17-.08-.19-.33v-.18c0-.44-.49-.9-2-.94l-2.1-.05v6.83c0,1.54,0,2.85.08,3.57.05.47.15.83.65.9a7.9,7.9,0,0,0,.85.07c.19,0,.27,0,.27.13s-.13.17-.32.17c-1.1,0-2.15,0-2.61,0s-1.43,0-2.1,0c-.22,0-.33,0-.33-.17s.06-.13.26-.13a2.91,2.91,0,0,0,.6-.07c.34-.07.44-.43.49-.92.08-.7.08-2,.08-3.55Z" transform="translate(-16.67 157.49)"/><path class="cls-1" d="M368.62-102.75c0-2.53,0-3,0-3.53s-.17-.83-.71-1a3.82,3.82,0,0,0-.65,0c-.19,0-.29,0-.29-.15s.12-.15.37-.15l1.35,0,1,0c.53,0,3.85,0,4.16,0a4.71,4.71,0,0,0,.72-.1,2.14,2.14,0,0,1,.27-.06c.08,0,.1.06.1.15a8.9,8.9,0,0,0-.14,1.08c0,.17-.05.9-.08,1.1s-.05.18-.17.18-.15-.08-.15-.23a1.62,1.62,0,0,0-.1-.6c-.11-.3-.28-.5-1.11-.6-.29,0-2-.07-2.37-.07-.08,0-.12,0-.12.17v4.22c0,.11,0,.18.12.18.37,0,2.28,0,2.67,0a1.24,1.24,0,0,0,.8-.25c.11-.14.18-.22.26-.22s.12,0,.12.13-.07.37-.13,1.22c0,.33-.07,1-.07,1.12s0,.31-.15.31-.15-.06-.15-.15a5.3,5.3,0,0,0-.07-.6c-.08-.33-.31-.58-.93-.65-.32,0-2,0-2.37,0-.08,0-.1.07-.1.17v1.31c0,.57,0,2.1,0,2.59,0,1.15.3,1.4,2,1.4a4.22,4.22,0,0,0,1.57-.2c.43-.2.63-.55.75-1.24,0-.18.07-.25.18-.25s.14.14.14.3a13.38,13.38,0,0,1-.22,1.85c-.12.44-.27.44-.9.44-1.25,0-2.17,0-2.88,0s-1.24,0-1.74,0h-.95c-.38,0-.81,0-1.15,0s-.33,0-.33-.17.07-.13.27-.13a2.91,2.91,0,0,0,.6-.07c.33-.07.41-.43.48-.92.08-.7.08-2,.08-3.55Z" transform="translate(-16.67 157.49)"/><path class="cls-1" d="M385.91-99.82c0,1.6,0,2.85.09,3.55.05.49.15.85.65.92a7.74,7.74,0,0,0,.83.07c.22,0,.28,0,.28.13s-.11.17-.36.17c-1,0-2.1,0-2.54,0s-1.48,0-2.11,0c-.24,0-.35,0-.35-.17s.06-.13.25-.13a2.91,2.91,0,0,0,.6-.07c.33-.07.41-.43.48-.92.08-.7.08-2,.08-3.55v-2.93c0-2.53,0-3,0-3.53s-.17-.83-.72-1a3.65,3.65,0,0,0-.65,0c-.16,0-.28,0-.28-.13s.13-.17.38-.17l1.35,0,1.05,0c.64,0,4,0,4.4,0a3,3,0,0,0,.69-.06.86.86,0,0,1,.26-.1c.07,0,.12.06.12.15s-.08.31-.13.75c0,.16-.05,1.15-.09,1.35s-.05.23-.16.23-.15-.08-.17-.27a1.62,1.62,0,0,0-.1-.63,1.23,1.23,0,0,0-1.1-.5l-2.57-.05c-.1,0-.15.05-.15.23v4.17c0,.1,0,.15.12.15l2.13,0h.75a.91.91,0,0,0,.72-.3c.08-.1.12-.17.22-.17s.1,0,.1.15-.09.52-.14,1c0,.33-.06,1.1-.06,1.22s0,.32-.17.32-.13-.12-.13-.24a2,2,0,0,0-.1-.51,1,1,0,0,0-.85-.6c-.42-.06-2.19-.06-2.47-.06-.08,0-.12,0-.12.16Z" transform="translate(-16.67 157.49)"/><path class="cls-1" d="M391.69-101.28c0-2.85,1.88-6.53,6.88-6.53,4.15,0,6.73,2.41,6.73,6.23a6.58,6.58,0,0,1-6.89,6.83A6.34,6.34,0,0,1,391.69-101.28ZM403-101c0-3.74-2.15-6.05-4.88-6.05-1.92,0-4.1,1.06-4.1,5.21,0,3.47,1.92,6.22,5.12,6.22C400.27-95.58,403-96.15,403-101Z" transform="translate(-16.67 157.49)"/><path class="cls-1" d="M407.78-102.75c0-2.53,0-3,0-3.53s-.17-.83-.72-1a3.73,3.73,0,0,0-.65,0c-.18,0-.28,0-.28-.15s.11-.15.36-.15c.89,0,1.94,0,2.29,0,.56,0,1.83,0,2.35,0a5.28,5.28,0,0,1,3.06.72,2.86,2.86,0,0,1,1.14,2.28c0,1.23-.52,2.37-2.2,3.73,1.48,1.87,2.63,3.35,3.61,4.38a3.32,3.32,0,0,0,1.87,1.14,2.91,2.91,0,0,0,.46,0c.14,0,.2,0,.2.13s-.11.17-.31.17h-1.59a3.43,3.43,0,0,1-1.78-.32,8.08,8.08,0,0,1-2.28-2.45c-.67-.92-1.43-2-1.65-2.3a.34.34,0,0,0-.3-.11l-1.45,0a.12.12,0,0,0-.13.13v.24c0,1.55,0,2.86.08,3.56.05.49.15.85.65.92.25,0,.62.07.82.07s.2,0,.2.13-.12.17-.34.17c-1,0-2.2,0-2.45,0s-1.36,0-2,0c-.22,0-.33,0-.33-.17s.06-.13.26-.13a2.91,2.91,0,0,0,.6-.07c.34-.07.42-.43.49-.92.08-.7.08-2,.08-3.55Zm2,1.32c0,.18,0,.25.15.3a4.27,4.27,0,0,0,1.26.17,1.66,1.66,0,0,0,1.19-.29,2.94,2.94,0,0,0,1-2.5c0-2.36-1.57-3-2.55-3a3.53,3.53,0,0,0-.88.07c-.12,0-.15.1-.15.23Z" transform="translate(-16.67 157.49)"/><path class="cls-1" d="M425.69-99.33c-.09,0-.12,0-.15.13l-.9,2.38a3.18,3.18,0,0,0-.25,1c0,.3.15.52.66.52h.25c.2,0,.25,0,.25.13s-.1.17-.28.17c-.53,0-1.25,0-1.77,0-.18,0-1.1,0-2,0-.22,0-.32,0-.32-.17s.07-.13.2-.13a4.38,4.38,0,0,0,.52,0c.76-.1,1.08-.66,1.41-1.5l4.18-10.46c.2-.48.31-.67.47-.67s.25.15.42.54c.4.91,3.06,7.71,4.13,10.24.63,1.5,1.12,1.74,1.47,1.82a3.68,3.68,0,0,0,.7.07c.13,0,.21,0,.21.13s-.15.17-.76.17-1.82,0-3.15,0c-.3,0-.5,0-.5-.13s.06-.13.23-.15a.27.27,0,0,0,.15-.38l-1.33-3.54a.17.17,0,0,0-.17-.11Zm3.39-.83c.09,0,.1,0,.09-.11l-1.5-4.11c0-.07,0-.15-.08-.15s-.09.08-.11.15l-1.53,4.1c0,.07,0,.12.07.12Z" transform="translate(-16.67 157.49)"/><path class="cls-1" d="M435.68-102.75c0-2.53,0-3,0-3.53s-.16-.83-.71-1a3.82,3.82,0,0,0-.65,0c-.18,0-.28,0-.28-.15s.11-.15.36-.15c.88,0,1.93,0,2.4,0s1.57,0,2.57,0c2.08,0,4.86,0,6.68,1.9a6,6,0,0,1,1.61,4.23,6.63,6.63,0,0,1-1.81,4.65,7.62,7.62,0,0,1-5.58,2c-.6,0-1.29,0-1.92-.1s-1.22-.1-1.63-.1h-.95c-.39,0-.82,0-1.15,0s-.33,0-.33-.17.06-.13.26-.13a2.91,2.91,0,0,0,.6-.07c.33-.07.42-.43.48-.92.09-.7.09-2,.09-3.55Zm2.08,1.84c0,1.76,0,3,0,3.36a3.57,3.57,0,0,0,.19,1.27c.21.31.86.66,2.18.66a5.33,5.33,0,0,0,3.83-1.2c1.07-.91,1.4-2.43,1.4-4.14a5.65,5.65,0,0,0-1.6-4.17,6.58,6.58,0,0,0-4.73-1.67,4.24,4.24,0,0,0-1.08.12.3.3,0,0,0-.2.33c0,.57,0,2,0,3.34Z" transform="translate(-16.67 157.49)"/><path class="cls-1" d="M448.74-105.95c-.39-.91-.67-1.1-1.27-1.26a2.47,2.47,0,0,0-.65-.07c-.15,0-.2,0-.2-.15s.18-.15.43-.15c.89,0,1.84,0,2.42,0,.42,0,1.22,0,2,0,.2,0,.38,0,.38.15s-.1.15-.25.15a1.18,1.18,0,0,0-.65.12.38.38,0,0,0-.16.35,4.71,4.71,0,0,0,.38,1.28L454.08-98h.07c.72-1.83,2.88-7.19,3.28-8.29a1.9,1.9,0,0,0,.15-.62.32.32,0,0,0-.21-.32,2.46,2.46,0,0,0-.67-.08c-.15,0-.28,0-.28-.13s.15-.17.46-.17c.84,0,1.54,0,1.75,0s1.07,0,1.57,0c.22,0,.35,0,.35.15s-.1.15-.27.15a1.44,1.44,0,0,0-.81.2c-.22.15-.47.43-.92,1.5-.65,1.57-1.1,2.47-2,4.51-1.07,2.44-1.85,4.25-2.22,5.09s-.53,1.23-.76,1.23-.32-.23-.64-1Z" transform="translate(-16.67 157.49)"/><path class="cls-1" d="M461.14-99.33c-.08,0-.11,0-.15.13l-.89,2.38a3.18,3.18,0,0,0-.25,1c0,.3.15.52.66.52h.25c.2,0,.25,0,.25.13s-.1.17-.28.17c-.54,0-1.25,0-1.77,0-.18,0-1.1,0-2,0-.22,0-.32,0-.32-.17s.07-.13.2-.13a4.38,4.38,0,0,0,.52,0c.76-.1,1.08-.66,1.41-1.5L463-107.28c.2-.48.3-.67.47-.67s.25.15.42.54c.4.91,3.06,7.71,4.13,10.24.63,1.5,1.12,1.74,1.47,1.82a3.68,3.68,0,0,0,.7.07c.13,0,.21,0,.21.13s-.15.17-.76.17-1.82,0-3.15,0c-.3,0-.5,0-.5-.13s.06-.13.23-.15a.27.27,0,0,0,.15-.38L465-99.22a.17.17,0,0,0-.17-.11Zm3.4-.83c.09,0,.1,0,.09-.11l-1.5-4.11c0-.07,0-.15-.09-.15s-.08.08-.1.15l-1.53,4.1c0,.07,0,.12.07.12Z" transform="translate(-16.67 157.49)"/><path class="cls-1" d="M472.74-97.25c0,1.3.25,1.73.58,1.85a2.65,2.65,0,0,0,.87.12c.18,0,.28,0,.28.13s-.15.17-.38.17c-1.09,0-1.75,0-2.07,0-.15,0-.93,0-1.8,0-.22,0-.37,0-.37-.17s.1-.13.27-.13a2.8,2.8,0,0,0,.75-.09c.43-.13.5-.61.52-2.06l.15-9.87c0-.33,0-.56.21-.56s.34.21.62.51,2.73,2.94,5.17,5.35c1.13,1.13,3.38,3.53,3.66,3.8h.08l-.16-7.48c0-1-.17-1.33-.57-1.5a2.71,2.71,0,0,0-.88-.1c-.2,0-.27,0-.27-.15s.19-.15.44-.15c.86,0,1.66,0,2,0,.18,0,.82,0,1.63,0,.22,0,.39,0,.39.15s-.1.15-.3.15a1.8,1.8,0,0,0-.5,0c-.47.13-.6.48-.62,1.42l-.18,10.51c0,.37-.07.52-.22.52s-.38-.19-.57-.37c-1.05-1-3.18-3.18-4.91-4.9s-3.67-3.88-4-4.2h-.05Z" transform="translate(-16.67 157.49)"/><path class="cls-1" d="M486.33-96.57a6.26,6.26,0,0,1-2.07-4.91,6.29,6.29,0,0,1,1.95-4.57,7.27,7.27,0,0,1,5.27-1.76,16.54,16.54,0,0,1,2.41.16c.63.09,1.17.24,1.67.29.18,0,.25.1.25.2s-.05.33-.09.91,0,1.47-.05,1.8-.05.39-.2.39-.16-.14-.16-.37a2.41,2.41,0,0,0-.65-1.53,4.93,4.93,0,0,0-3.38-1,4.36,4.36,0,0,0-3.14,1,5.58,5.58,0,0,0-1.53,4.31,5.6,5.6,0,0,0,5.25,5.93c1.48,0,2.38-.16,3.05-.93a2.74,2.74,0,0,0,.56-1.1c0-.27.09-.33.22-.33s.15.11.15.25a15.23,15.23,0,0,1-.37,2.21.59.59,0,0,1-.43.49,9.82,9.82,0,0,1-3,.38A8.29,8.29,0,0,1,486.33-96.57Z" transform="translate(-16.67 157.49)"/><path class="cls-1" d="M498.74-102.75c0-2.53,0-3,0-3.53s-.16-.83-.71-1a3.82,3.82,0,0,0-.65,0c-.19,0-.29,0-.29-.15s.12-.15.37-.15l1.35,0,1.05,0c.53,0,3.85,0,4.16,0a4.71,4.71,0,0,0,.72-.1,2.14,2.14,0,0,1,.27-.06c.08,0,.1.06.1.15a8.9,8.9,0,0,0-.14,1.08c0,.17-.05.9-.08,1.1s-.05.18-.17.18-.15-.08-.15-.23a1.62,1.62,0,0,0-.1-.6c-.11-.3-.28-.5-1.11-.6-.29,0-2-.07-2.37-.07-.08,0-.12,0-.12.17v4.22c0,.11,0,.18.12.18.37,0,2.28,0,2.67,0a1.24,1.24,0,0,0,.8-.25c.11-.14.18-.22.26-.22s.12,0,.12.13-.07.37-.13,1.22c0,.33-.07,1-.07,1.12s0,.31-.15.31-.15-.06-.15-.15a5.3,5.3,0,0,0-.07-.6c-.08-.33-.31-.58-.93-.65-.32,0-2,0-2.37,0-.08,0-.1.07-.1.17v1.31c0,.57,0,2.1,0,2.59,0,1.15.3,1.4,2,1.4a4.22,4.22,0,0,0,1.57-.2c.43-.2.63-.55.75-1.24,0-.18.07-.25.18-.25s.14.14.14.3a13.38,13.38,0,0,1-.22,1.85c-.12.44-.27.44-.9.44-1.25,0-2.17,0-2.88,0s-1.24,0-1.74,0h-.94c-.39,0-.82,0-1.15,0s-.34,0-.34-.17.07-.13.27-.13a2.91,2.91,0,0,0,.6-.07c.33-.07.42-.43.48-.92.09-.7.09-2,.09-3.55Z" transform="translate(-16.67 157.49)"/><path class="cls-1" d="M508.26-102.75c0-2.53,0-3,0-3.53s-.17-.83-.72-1a3.65,3.65,0,0,0-.65,0c-.18,0-.28,0-.28-.15s.12-.15.37-.15c.88,0,1.93,0,2.39,0s1.57,0,2.57,0c2.08,0,4.87,0,6.68,1.9a5.93,5.93,0,0,1,1.62,4.23,6.59,6.59,0,0,1-1.82,4.65,7.6,7.6,0,0,1-5.58,2c-.6,0-1.28,0-1.92-.1s-1.21-.1-1.63-.1h-.95c-.38,0-.81,0-1.15,0s-.33,0-.33-.17.07-.13.27-.13a2.8,2.8,0,0,0,.59-.07c.34-.07.42-.43.49-.92.08-.7.08-2,.08-3.55Zm2.08,1.84c0,1.76,0,3,0,3.36a3.6,3.6,0,0,0,.18,1.27c.22.31.87.66,2.18.66a5.36,5.36,0,0,0,3.84-1.2c1.06-.91,1.4-2.43,1.4-4.14a5.69,5.69,0,0,0-1.6-4.17,6.62,6.62,0,0,0-4.74-1.67,4.24,4.24,0,0,0-1.08.12.3.3,0,0,0-.2.33c0,.57,0,2,0,3.34Z" transform="translate(-16.67 157.49)"/><path class="cls-1" d="M284-79.42A6.28,6.28,0,0,1,282-84.34a6.29,6.29,0,0,1,1.95-4.57,7.3,7.3,0,0,1,5.26-1.76,15.17,15.17,0,0,1,2.42.17c.63.08,1.17.23,1.67.28.18,0,.25.1.25.2s-.05.33-.09.91,0,1.47-.05,1.8-.05.39-.2.39-.16-.14-.16-.37a2.41,2.41,0,0,0-.65-1.53,4.94,4.94,0,0,0-3.39-1,4.35,4.35,0,0,0-3.13,1,5.58,5.58,0,0,0-1.53,4.31,5.59,5.59,0,0,0,5.25,5.93c1.48,0,2.38-.16,3.05-.93a2.68,2.68,0,0,0,.56-1.1c0-.26.09-.33.22-.33s.15.12.15.25a15.55,15.55,0,0,1-.37,2.22.59.59,0,0,1-.43.48,9.56,9.56,0,0,1-3,.38A8.34,8.34,0,0,1,284-79.42Z" transform="translate(-16.67 157.49)"/><path class="cls-1" d="M294.61-84.14c0-2.85,1.88-6.53,6.88-6.53,4.15,0,6.73,2.41,6.73,6.23a6.58,6.58,0,0,1-6.9,6.83A6.34,6.34,0,0,1,294.61-84.14Zm11.28.32c0-3.74-2.15-6.05-4.88-6.05-1.92,0-4.1,1.06-4.1,5.21,0,3.47,1.91,6.22,5.11,6.22C303.19-78.44,305.89-79,305.89-83.82Z" transform="translate(-16.67 157.49)"/><path class="cls-1" d="M311.81-90.37c.05-.29.15-.43.29-.43s.23.08.45.51l4.55,9.4,4.53-9.52c.13-.26.21-.39.36-.39s.25.16.3.51L323.81-80c.15,1,.32,1.53.82,1.68a3.32,3.32,0,0,0,1,.17c.15,0,.27,0,.27.11s-.2.19-.44.19c-.41,0-2.71,0-3.38-.1-.38,0-.48-.09-.48-.18s.06-.14.18-.19.15-.25.08-.71l-1-7.34h-.06l-3.63,7.57c-.39.78-.47.93-.62.93s-.32-.33-.58-.83c-.4-.77-1.72-3.32-1.92-3.78s-1.15-2.45-1.73-3.7h-.07l-.87,6.63a7.43,7.43,0,0,0-.05.78c0,.32.22.47.5.54a3.7,3.7,0,0,0,.7.08c.14,0,.25,0,.25.11s-.15.19-.4.19c-.7,0-1.45,0-1.75,0s-1.11,0-1.65,0c-.16,0-.3,0-.3-.19s.1-.11.27-.11a2.16,2.16,0,0,0,.5,0c.47-.1.6-.75.68-1.32Z" transform="translate(-16.67 157.49)"/><path class="cls-1" d="M328.24-85.61c0-2.53,0-3,0-3.53s-.16-.83-.71-1a3.82,3.82,0,0,0-.65,0c-.19,0-.29,0-.29-.15s.12-.15.37-.15c.88,0,1.93,0,2.4,0,.68,0,1.65,0,2.41,0,2.09,0,2.84.7,3.1,1a2.88,2.88,0,0,1,.84,2,3.93,3.93,0,0,1-4.1,4,2,2,0,0,1-.35,0c-.09,0-.2,0-.2-.15s.11-.18.46-.18a2.62,2.62,0,0,0,2.24-2.75,3.19,3.19,0,0,0-1-2.5,2.47,2.47,0,0,0-1.66-.65,2.39,2.39,0,0,0-.65.06c-.08,0-.13.14-.13.32v6.67c0,1.53,0,2.85.08,3.56.05.47.15.84.65.9a5.85,5.85,0,0,0,.85.07c.18,0,.26,0,.26.13s-.13.17-.31.17c-1.1,0-2.15,0-2.58,0s-1.44,0-2.1,0c-.22,0-.34,0-.34-.17s.07-.13.27-.13a2.35,2.35,0,0,0,.6-.07c.33-.06.42-.43.48-.91.09-.7.09-2,.09-3.55Z" transform="translate(-16.67 157.49)"/><path class="cls-1" d="M338.1-85.61c0-2.53,0-3,0-3.53s-.16-.83-.71-1a3.82,3.82,0,0,0-.65,0c-.19,0-.29,0-.29-.15s.12-.15.37-.15c.88,0,1.93,0,2.43,0s1.45,0,2.05,0c.25,0,.37,0,.37.15s-.1.15-.27.15a2.8,2.8,0,0,0-.48,0c-.45.09-.59.37-.62,1s0,1,0,3.53v2.34c0,2.41.48,3.43,1.3,4.1a3.1,3.1,0,0,0,2.08.68,3.26,3.26,0,0,0,2.3-.9c.92-.92,1-2.42,1-4.13v-2.09c0-2.53,0-3,0-3.53s-.16-.83-.71-1a3.64,3.64,0,0,0-.6,0c-.19,0-.29,0-.29-.15s.12-.15.35-.15c.85,0,1.9,0,1.92,0,.2,0,1.25,0,1.9,0,.23,0,.35,0,.35.15s-.1.15-.3.15a2.8,2.8,0,0,0-.48,0c-.45.09-.59.37-.62,1s0,1,0,3.53v1.79c0,1.85-.19,3.81-1.59,5a4.94,4.94,0,0,1-3.46,1.2,5.34,5.34,0,0,1-3.7-1.15c-.85-.76-1.48-2-1.48-4.41Z" transform="translate(-16.67 157.49)"/><path class="cls-1" d="M354.89-89.51l-2.49.07c-1,0-1.36.12-1.61.48a2.06,2.06,0,0,0-.29.59c0,.13-.08.2-.18.2s-.15-.09-.15-.27.32-1.78.35-1.92.1-.31.2-.31a3.51,3.51,0,0,0,.72.2c.48,0,1.11.08,1.66.08h6.6a8.69,8.69,0,0,0,1.15-.08,3.57,3.57,0,0,1,.45-.08c.12,0,.13.09.13.34s-.05,1.5-.05,1.94c0,.16-.05.26-.15.26s-.16-.08-.18-.33l0-.18c0-.44-.48-.9-2-.94l-2.1-.05v6.84c0,1.53,0,2.85.08,3.56.05.47.15.84.65.9a5.85,5.85,0,0,0,.85.07c.18,0,.27,0,.27.13s-.14.17-.32.17c-1.1,0-2.15,0-2.61,0s-1.44,0-2.1,0c-.22,0-.34,0-.34-.17s.07-.13.27-.13a2.35,2.35,0,0,0,.6-.07c.33-.06.43-.43.48-.91.09-.7.09-2,.09-3.55Z" transform="translate(-16.67 157.49)"/><path class="cls-1" d="M363-82.19c-.08,0-.11,0-.15.13l-.9,2.39a3.36,3.36,0,0,0-.25,1c0,.3.15.52.67.52h.25c.2,0,.25,0,.25.13s-.1.17-.28.17c-.54,0-1.25,0-1.77,0-.18,0-1.1,0-2,0-.21,0-.31,0-.31-.17s.06-.13.2-.13l.51,0c.77-.1,1.09-.67,1.42-1.5l4.18-10.47c.2-.48.3-.66.47-.66s.25.14.41.53c.4.91,3.07,7.71,4.14,10.25.63,1.5,1.11,1.73,1.46,1.81a3.68,3.68,0,0,0,.7.07c.14,0,.22,0,.22.13s-.15.17-.77.17-1.81,0-3.15,0c-.3,0-.5,0-.5-.13s.07-.13.24-.15a.27.27,0,0,0,.15-.38l-1.34-3.53a.15.15,0,0,0-.16-.12Zm3.4-.83c.08,0,.1,0,.08-.1l-1.5-4.12c0-.07,0-.15-.08-.15s-.08.08-.1.15l-1.53,4.1c0,.07,0,.12.07.12Z" transform="translate(-16.67 157.49)"/><path class="cls-1" d="M374.31-89.51l-2.49.07c-1,0-1.36.12-1.61.48a2.06,2.06,0,0,0-.29.59c0,.13-.08.2-.18.2s-.15-.09-.15-.27.32-1.78.35-1.92.1-.31.2-.31a3.51,3.51,0,0,0,.72.2c.48,0,1.11.08,1.66.08h6.6a8.69,8.69,0,0,0,1.15-.08,3.57,3.57,0,0,1,.45-.08c.12,0,.13.09.13.34s-.05,1.5-.05,1.94c0,.16-.05.26-.15.26s-.16-.08-.18-.33l0-.18c0-.44-.48-.9-2-.94l-2.1-.05v6.84c0,1.53,0,2.85.08,3.56,0,.47.15.84.65.9a5.85,5.85,0,0,0,.85.07c.18,0,.27,0,.27.13s-.14.17-.32.17c-1.1,0-2.15,0-2.61,0s-1.44,0-2.1,0c-.22,0-.34,0-.34-.17s.07-.13.27-.13a2.35,2.35,0,0,0,.6-.07c.33-.06.43-.43.48-.91.09-.7.09-2,.09-3.55Z" transform="translate(-16.67 157.49)"/><path class="cls-1" d="M383.25-85.61c0-2.53,0-3,0-3.53s-.2-.85-.56-.93a2.4,2.4,0,0,0-.6-.07c-.17,0-.27,0-.27-.17s.13-.13.4-.13c.63,0,1.68,0,2.17,0s1.4,0,2,0c.22,0,.35,0,.35.13s-.1.17-.27.17a3.24,3.24,0,0,0-.5,0c-.45.09-.58.37-.61,1s0,1,0,3.53v2.94c0,1.61,0,2.93.07,3.65.05.44.17.75.67.81a5.85,5.85,0,0,0,.85.07c.18,0,.26,0,.26.13s-.13.17-.31.17c-1.1,0-2.15,0-2.6,0s-1.44,0-2.1,0c-.22,0-.34,0-.34-.17s.07-.13.27-.13a2.35,2.35,0,0,0,.6-.07c.33-.06.43-.35.48-.83.09-.7.09-2,.09-3.63Z" transform="translate(-16.67 157.49)"/><path class="cls-1" d="M389.13-84.14c0-2.85,1.88-6.53,6.88-6.53,4.15,0,6.73,2.41,6.73,6.23a6.59,6.59,0,0,1-6.9,6.83A6.34,6.34,0,0,1,389.13-84.14Zm11.28.32c0-3.74-2.15-6.05-4.89-6.05-1.91,0-4.09,1.06-4.09,5.21,0,3.47,1.91,6.22,5.11,6.22C397.71-78.44,400.41-79,400.41-83.82Z" transform="translate(-16.67 157.49)"/><path class="cls-1" d="M407.48-80.11c0,1.3.25,1.73.59,1.85a2.59,2.59,0,0,0,.86.12c.19,0,.28,0,.28.13s-.15.17-.38.17c-1.08,0-1.75,0-2.06,0-.15,0-.94,0-1.8,0-.22,0-.37,0-.37-.17s.1-.13.27-.13a3.36,3.36,0,0,0,.75-.08c.43-.14.5-.62.51-2.07l.15-9.87c0-.33.05-.56.22-.56s.33.22.62.51,2.73,2.94,5.16,5.35c1.13,1.14,3.38,3.54,3.67,3.8H416l-.17-7.48c0-1-.16-1.33-.56-1.5a2.74,2.74,0,0,0-.89-.1c-.2,0-.26,0-.26-.15s.18-.15.43-.15c.87,0,1.67,0,2,0,.18,0,.81,0,1.63,0,.22,0,.38,0,.38.15s-.1.15-.3.15a1.84,1.84,0,0,0-.5,0c-.46.13-.6.48-.61,1.42L417-78.16c0,.37-.06.52-.21.52s-.39-.19-.57-.37c-1.05-1-3.18-3.18-4.92-4.9s-3.66-3.88-4-4.2h-.05Z" transform="translate(-16.67 157.49)"/><path class="cls-1" d="M422-82.19c-.08,0-.12,0-.15.13l-.9,2.39a3.07,3.07,0,0,0-.25,1c0,.3.15.52.67.52h.25c.2,0,.25,0,.25.13s-.1.17-.29.17c-.53,0-1.25,0-1.76,0-.19,0-1.1,0-2,0-.22,0-.32,0-.32-.17s.07-.13.2-.13l.52,0c.77-.1,1.08-.67,1.42-1.5l4.18-10.47c.2-.48.3-.66.46-.66s.25.14.42.53c.4.91,3.07,7.71,4.13,10.25.64,1.5,1.12,1.73,1.47,1.81a3.68,3.68,0,0,0,.7.07c.13,0,.22,0,.22.13s-.15.17-.77.17-1.82,0-3.15,0c-.3,0-.5,0-.5-.13s.07-.13.23-.15a.26.26,0,0,0,.15-.38l-1.33-3.53a.15.15,0,0,0-.17-.12Zm3.4-.83c.08,0,.1,0,.08-.1L424-87.24c0-.07,0-.15-.08-.15s-.09.08-.1.15l-1.54,4.1c0,.07,0,.12.07.12Z" transform="translate(-16.67 157.49)"/><path class="cls-1" d="M435.06-82.67c0,2.13,0,3.28.35,3.58s.72.37,2,.37c.88,0,1.53,0,1.95-.47a2.05,2.05,0,0,0,.43-1c0-.15.05-.25.19-.25s.13.08.13.28a13.49,13.49,0,0,1-.25,1.92c-.1.36-.18.45-1.05.45-1.2,0-2.07,0-2.82,0s-1.35,0-2,0h-1c-.38,0-.82,0-1.15,0s-.33,0-.33-.17.06-.13.26-.13a2.35,2.35,0,0,0,.6-.07c.34-.06.42-.43.49-.91.08-.7.08-2,.08-3.55v-2.94c0-2.53,0-3,0-3.53s-.17-.83-.72-1a2.64,2.64,0,0,0-.55,0c-.18,0-.28,0-.28-.15s.11-.15.36-.15c.79,0,1.84,0,2.29,0s1.61,0,2.26,0c.24,0,.35,0,.35.15s-.1.15-.3.15a5,5,0,0,0-.65,0c-.45.09-.58.37-.61,1s0,1,0,3.53Z" transform="translate(-16.67 157.49)"/><path class="cls-1" d="M445.81-78c-.27-.12-.32-.2-.32-.57,0-.91.07-1.91.08-2.18s.07-.43.2-.43.17.15.17.28a3.18,3.18,0,0,0,.15.85,2.3,2.3,0,0,0,2.38,1.68,2,2,0,0,0,2.23-1.9c0-.81-.25-1.58-1.63-2.66l-.77-.6c-1.83-1.44-2.46-2.6-2.46-4,0-1.84,1.53-3.15,3.85-3.15a8.32,8.32,0,0,1,2.21.28c.15,0,.24.08.24.2s-.07.7-.07,2c0,.37-.05.5-.18.5s-.17-.1-.17-.3a2,2,0,0,0-.43-1.1,2.12,2.12,0,0,0-1.82-.82,1.76,1.76,0,0,0-2,1.72c0,.77.38,1.35,1.76,2.4l.47.35c2,1.52,2.73,2.67,2.73,4.25a3.34,3.34,0,0,1-1.56,2.9,4.86,4.86,0,0,1-2.65.68A5.68,5.68,0,0,1,445.81-78Z" transform="translate(-16.67 157.49)"/><path class="cls-1" d="M455.67-79.42a6.28,6.28,0,0,1-2.07-4.92,6.29,6.29,0,0,1,1.95-4.57,7.3,7.3,0,0,1,5.26-1.76,15.17,15.17,0,0,1,2.42.17c.63.08,1.17.23,1.67.28.18,0,.25.1.25.2s0,.33-.09.91,0,1.47-.05,1.8-.05.39-.2.39-.16-.14-.16-.37a2.41,2.41,0,0,0-.65-1.53,4.94,4.94,0,0,0-3.39-1,4.32,4.32,0,0,0-3.13,1A5.58,5.58,0,0,0,456-84.51a5.59,5.59,0,0,0,5.25,5.93c1.48,0,2.38-.16,3.05-.93a2.68,2.68,0,0,0,.56-1.1c.05-.26.09-.33.22-.33s.15.12.15.25a15.55,15.55,0,0,1-.37,2.22.59.59,0,0,1-.43.48,9.56,9.56,0,0,1-3,.38A8.34,8.34,0,0,1,455.67-79.42Z" transform="translate(-16.67 157.49)"/><path class="cls-1" d="M467.74-85.61c0-2.53,0-3,0-3.53s-.2-.85-.57-.93a2.35,2.35,0,0,0-.6-.07c-.17,0-.27,0-.27-.17s.14-.13.4-.13c.64,0,1.69,0,2.17,0s1.4,0,2,0c.22,0,.35,0,.35.13s-.1.17-.26.17a3.13,3.13,0,0,0-.5,0c-.45.09-.59.37-.62,1s0,1,0,3.53v2.94c0,1.61,0,2.93.06,3.65.05.44.17.75.67.81a5.85,5.85,0,0,0,.85.07c.18,0,.27,0,.27.13s-.14.17-.32.17c-1.1,0-2.15,0-2.6,0s-1.43,0-2.1,0c-.22,0-.33,0-.33-.17s.06-.13.26-.13a2.35,2.35,0,0,0,.6-.07c.34-.06.44-.35.49-.83.08-.7.08-2,.08-3.63Z" transform="translate(-16.67 157.49)"/><path class="cls-1" d="M474.6-85.61c0-2.53,0-3,0-3.53s-.17-.83-.72-1a3.65,3.65,0,0,0-.65,0c-.18,0-.28,0-.28-.15s.12-.15.37-.15l1.35,0,1.05,0c.53,0,3.84,0,4.16,0s.58-.06.72-.09a1.25,1.25,0,0,1,.26-.07c.09,0,.1.07.1.15a10.7,10.7,0,0,0-.13,1.08c0,.17-.05.9-.08,1.1s-.05.18-.17.18-.15-.08-.15-.23a1.86,1.86,0,0,0-.1-.6c-.12-.3-.28-.5-1.12-.6-.28,0-2-.07-2.36-.07-.08,0-.12,0-.12.17v4.22c0,.11,0,.18.12.18.37,0,2.28,0,2.66,0a1.24,1.24,0,0,0,.8-.25c.12-.14.19-.22.27-.22s.12,0,.12.13-.07.37-.14,1.22c0,.33-.06,1-.06,1.12s0,.31-.15.31-.15-.06-.15-.15a5.3,5.3,0,0,0-.07-.6c-.08-.33-.32-.58-.93-.65-.32,0-2,0-2.37,0-.08,0-.1.07-.1.17v1.32c0,.56,0,2.1,0,2.58,0,1.15.3,1.4,2,1.4a4.27,4.27,0,0,0,1.57-.2c.43-.2.63-.55.75-1.23,0-.19.06-.25.18-.25s.13.13.13.3a13.77,13.77,0,0,1-.21,1.85c-.12.43-.27.43-.9.43-1.25,0-2.17,0-2.88,0s-1.24,0-1.74,0h-1c-.38,0-.81,0-1.15,0s-.33,0-.33-.17.07-.13.27-.13a2.35,2.35,0,0,0,.6-.07c.33-.06.41-.43.48-.91.08-.7.08-2,.08-3.55Z" transform="translate(-16.67 157.49)"/><path class="cls-1" d="M485.73-80.11c0,1.3.25,1.73.58,1.85a2.65,2.65,0,0,0,.87.12c.18,0,.28,0,.28.13s-.15.17-.38.17c-1.08,0-1.75,0-2.07,0-.15,0-.93,0-1.8,0-.21,0-.36,0-.36-.17s.1-.13.26-.13a3.25,3.25,0,0,0,.75-.08c.44-.14.5-.62.52-2.07l.15-9.87c0-.33.05-.56.22-.56s.33.22.61.51,2.73,2.94,5.17,5.35c1.13,1.14,3.38,3.54,3.66,3.8h.09l-.17-7.48c0-1-.17-1.33-.57-1.5a2.71,2.71,0,0,0-.88-.1c-.2,0-.27,0-.27-.15s.19-.15.44-.15c.86,0,1.66,0,2,0,.19,0,.82,0,1.64,0,.21,0,.38,0,.38.15s-.1.15-.3.15a1.8,1.8,0,0,0-.5,0c-.47.13-.6.48-.62,1.42l-.18,10.51c0,.37-.07.52-.22.52s-.38-.19-.56-.37c-1.05-1-3.19-3.18-4.92-4.9s-3.66-3.88-4-4.2h0Z" transform="translate(-16.67 157.49)"/><path class="cls-1" d="M499.48-79.42a6.3,6.3,0,0,1-2.06-4.92,6.29,6.29,0,0,1,1.95-4.57,7.3,7.3,0,0,1,5.26-1.76,15.17,15.17,0,0,1,2.42.17c.63.08,1.17.23,1.67.28.18,0,.25.1.25.2s-.05.33-.09.91,0,1.47-.05,1.8-.05.39-.2.39-.16-.14-.16-.37a2.41,2.41,0,0,0-.65-1.53,4.94,4.94,0,0,0-3.39-1,4.32,4.32,0,0,0-3.13,1,5.58,5.58,0,0,0-1.53,4.31A5.59,5.59,0,0,0,505-78.58c1.48,0,2.38-.16,3.05-.93a2.68,2.68,0,0,0,.56-1.1c.05-.26.09-.33.22-.33s.15.12.15.25a15.55,15.55,0,0,1-.37,2.22.59.59,0,0,1-.43.48,9.56,9.56,0,0,1-3,.38A8.38,8.38,0,0,1,499.48-79.42Z" transform="translate(-16.67 157.49)"/><path class="cls-1" d="M512.23-85.61c0-2.53,0-3,0-3.53s-.16-.83-.71-1a3.82,3.82,0,0,0-.65,0c-.19,0-.29,0-.29-.15s.12-.15.37-.15l1.35,0,1,0c.53,0,3.85,0,4.17,0s.58-.06.71-.09a1.34,1.34,0,0,1,.27-.07c.08,0,.1.07.1.15a8.9,8.9,0,0,0-.14,1.08c0,.17,0,.9-.08,1.1s-.05.18-.17.18-.15-.08-.15-.23a1.62,1.62,0,0,0-.1-.6c-.11-.3-.28-.5-1.11-.6-.28,0-2-.07-2.37-.07-.08,0-.11,0-.11.17v4.22c0,.11,0,.18.11.18.37,0,2.29,0,2.67,0a1.24,1.24,0,0,0,.8-.25c.11-.14.18-.22.26-.22s.12,0,.12.13-.07.37-.13,1.22c0,.33-.07,1-.07,1.12s0,.31-.15.31a.13.13,0,0,1-.15-.15c0-.16,0-.38-.06-.6s-.32-.58-.94-.65c-.31,0-2,0-2.36,0-.09,0-.1.07-.1.17v1.32c0,.56,0,2.1,0,2.58,0,1.15.3,1.4,2,1.4a4.19,4.19,0,0,0,1.56-.2c.43-.2.63-.55.75-1.23,0-.19.07-.25.18-.25s.14.13.14.3a13.76,13.76,0,0,1-.22,1.85c-.12.43-.27.43-.9.43-1.25,0-2.16,0-2.88,0s-1.23,0-1.73,0h-1c-.39,0-.82,0-1.15,0s-.34,0-.34-.17.07-.13.27-.13a2.35,2.35,0,0,0,.6-.07c.33-.06.42-.43.48-.91.09-.7.09-2,.09-3.55Z" transform="translate(-16.67 157.49)"/><path class="cls-1" d="M127.27-119.35a5.27,5.27,0,0,1-5.27,5.27,5.27,5.27,0,0,1-5.27-5.27,5.27,5.27,0,0,1,5.27-5.27A5.27,5.27,0,0,1,127.27-119.35Z" transform="translate(-16.67 157.49)"/><path class="cls-1" d="M117.17-78.07v-31.51H127v31.51Z" transform="translate(-16.67 157.49)"/><path class="cls-1" d="M130.83-78.09v-29.43a16.46,16.46,0,0,1,5-12,16.49,16.49,0,0,1,12.09-5h12.41a16.49,16.49,0,0,1,12.09,5,16.51,16.51,0,0,1,5,12.09v29.43h-9.81v-14.6H140.69v14.6Zm36.74-24.46v-5a6.76,6.76,0,0,0-2.14-5.07,6.94,6.94,0,0,0-5.12-2.14H147.9a6.94,6.94,0,0,0-5.12,2.14,6.91,6.91,0,0,0-2.09,5.07v5Z" transform="translate(-16.67 157.49)"/><path class="cls-1" d="M227.12-95.1a16.47,16.47,0,0,1-5,12,16.47,16.47,0,0,1-12,5H197.64a16.47,16.47,0,0,1-12-5,16.47,16.47,0,0,1-5-12v-12.47a16.47,16.47,0,0,1,5-12,16.47,16.47,0,0,1,12-5h12.47a16.47,16.47,0,0,1,12,5,16.47,16.47,0,0,1,5,12h-9.85a6.73,6.73,0,0,0-2.14-5,6.73,6.73,0,0,0-5-2.14H197.64a6.88,6.88,0,0,0-5.06,2.14,6.85,6.85,0,0,0-2.1,5V-95.1a7,7,0,0,0,2.1,5.06,7,7,0,0,0,5.06,2.1h12.47a6.85,6.85,0,0,0,5-2.1,6.88,6.88,0,0,0,2.14-5.06Z" transform="translate(-16.67 157.49)"/><path class="cls-1" d="M243.72-106.36c.33,0,2.42,0,6.28,0h1.49a2.85,2.85,0,0,1,.65,0,45.35,45.35,0,0,1,10.7.65,13.8,13.8,0,0,1,8.78,5.54,12.62,12.62,0,0,1,2.24,7.3,14.57,14.57,0,0,1-7.35,12.41,16.84,16.84,0,0,1-8.65,2.37H243.63A17.09,17.09,0,0,1,234.1-81a16.9,16.9,0,0,1-6.33-7.63l9.12-3.9A7.25,7.25,0,0,0,243.63-88h14.23c2.56,0,4.37-.93,5.44-2.74a4,4,0,0,0,.6-2.09c0-2-1.67-3.12-5-3.45a43.67,43.67,0,0,0-6.56-.09l-1,0h-1.12A42.84,42.84,0,0,1,239.77-97a13.44,13.44,0,0,1-8.51-5.54A12.35,12.35,0,0,1,229-109.8a14.6,14.6,0,0,1,7.35-12.41,16.5,16.5,0,0,1,8.65-2.38h12.6a16.82,16.82,0,0,1,9.48,2.89,16.56,16.56,0,0,1,6.33,7.62l-9.12,3.91a7.13,7.13,0,0,0-6.69-4.46H245c-2.56,0-4.37.93-5.44,2.74a4,4,0,0,0-.61,2.09C239-107.85,240.56-106.68,243.72-106.36Z" transform="translate(-16.67 157.49)"/></svg>