<svg id="Layer_1" data-name="Layer 1" xmlns="http://www.w3.org/2000/svg" viewBox="0 0 735 320.5"><defs><style>.cls-1{fill:#231f20;}</style></defs><path class="cls-1" d="M357.5,499.75h-50a15,15,0,0,1-15-15v-50a15,15,0,0,0-15-15h-50a15,15,0,0,1-15-15v-50a15,15,0,0,0-15-15h-50a15,15,0,0,0-15,15v50a15,15,0,0,0,15,15h49a15,15,0,0,1,15,15v50a15,15,0,0,1-15,15h-49a15,15,0,0,0-15,15v130a15,15,0,0,0,15,15h50a15,15,0,0,0,15-15v-130a15,15,0,0,1,15-15h50a15,15,0,0,1,15,15v130a15,15,0,0,0,15,15h50a15,15,0,0,0,15-15v-130A15,15,0,0,0,357.5,499.75Zm255,80.5h-130a15,15,0,0,1-15-15v-50a15,15,0,0,1,15-15h130a15,15,0,0,0,15-15v-50a15,15,0,0,0-15-15h-130a15,15,0,0,0-15,15v49.5a15,15,0,0,1-15,15h-50a15,15,0,0,0-15,15v51a15,15,0,0,0,15,15h50a15,15,0,0,1,15,15v49.5a15,15,0,0,0,15,15h130a15,15,0,0,0,15-15v-50A15,15,0,0,0,612.5,580.25Zm110-80h130a15,15,0,0,0,15-15v-50a15,15,0,0,0-15-15h-130a15,15,0,0,0-15,15v49.5a15,15,0,0,1-15,15h-50a15,15,0,0,0-15,15v51a15,15,0,0,0,15,15h50a15,15,0,0,1,15,15v49.5a15,15,0,0,0,15,15h130a15,15,0,0,0,15-15v-50a15,15,0,0,0-15-15h-130a15,15,0,0,1-15-15v-50A15,15,0,0,1,722.5,500.25Z" transform="translate(-132.5 -339.75)"/></svg>